<?xml version="1.0" encoding="UTF-8" standalone="no"?>
<!-- Created with Inkscape (http://www.inkscape.org/) -->

<svg
   width="210mm"
   height="297mm"
   viewBox="0 0 210 297"
   version="1.1"
   id="svg247"
   xmlns="http://www.w3.org/2000/svg"
   xmlns:svg="http://www.w3.org/2000/svg">
  <defs
     id="defs244" />
  <g
     id="layer1">
    <rect
       style="fill:#fefefe;fill-opacity:0.978723;stroke:#000000;stroke-width:0.264583"
       id="rect467"
       width="106.35429"
       height="185.55429"
       x="46.388573"
       y="37.337143"
       ry="3.0593588" />
    <rect
       style="fill:#fefefe;fill-opacity:0.978723;stroke:#000000;stroke-width:0.264583"
       id="rect2324"
       width="173.10857"
       height="41.862854"
       x="10.748571"
       y="197.43428"
       ry="3.0593588" />
    <rect
       style="fill:#fefefe;fill-opacity:0.978723;stroke:#000000;stroke-width:0.264583"
       id="rect2326"
       width="158.96571"
       height="37.902859"
       x="23.194286"
       y="34.508572"
       ry="3.0593588" />
    <rect
       style="fill:#fefefe;fill-opacity:0.978723;stroke:#000000;stroke-width:0.264583"
       id="rect2328"
       width="78.068573"
       height="102.39428"
       x="58.268574"
       y="81.462852"
       ry="3.0593588" />
    <rect
       style="fill:#fefefe;fill-opacity:0.978723;stroke:#000000;stroke-width:0.264583"
       id="rect2330"
       width="26.588572"
       height="64.491425"
       x="83.725708"
       y="101.82857"
       ry="3.0593588" />
    <rect
       style="fill:#fefefe;fill-opacity:0.978723;stroke:#000000;stroke-width:0.264583"
       id="rect2332"
       width="153.30856"
       height="29.417141"
       x="18.668571"
       y="204.22285"
       ry="3.0593588" />
    <rect
       style="fill:#fefefe;fill-opacity:0.978723;stroke:#000000;stroke-width:0.264583"
       id="rect2334"
       width="115.40572"
       height="13.577143"
       x="35.074287"
       y="213.27428"
       ry="3.0593588" />
    <rect
       style="fill:#fefefe;fill-opacity:0.978723;stroke:#000000;stroke-width:0.264583"
       id="rect2338"
       width="138.60001"
       height="26.588572"
       x="31.114285"
       y="40.165714"
       ry="3.0593588" />
    <rect
       style="fill:#fefefe;fill-opacity:0.978723;stroke:#000000;stroke-width:0.264583"
       id="rect2340"
       width="105.78857"
       height="14.70857"
       x="52.611427"
       y="45.822857"
       ry="3.0593588" />
    <path
       style="fill:#fefefe;fill-opacity:0.978723;stroke:#000000;stroke-width:2.13813"
       d="m 45.053511,898.93209 c -2.91813,-2.91813 -3.359923,-12.5974 -3.359923,-73.61285 0,-61.01546 0.441793,-70.69473 3.359923,-73.61286 2.902246,-2.90225 11.930966,-3.35992 66.282119,-3.35992 h 62.92219 v 10.69066 10.69066 h -47.63224 c -39.650399,0 -48.428545,0.55776 -52.384253,3.32844 -4.685073,3.28156 -4.752013,4.04789 -4.752013,54.40115 0,50.35326 0.06694,51.11959 4.752013,54.40114 4.24248,2.97155 34.912343,3.32844 286.034043,3.32844 251.1217,0 281.79154,-0.35689 286.03403,-3.32844 4.68507,-3.28155 4.75202,-4.04788 4.75202,-54.40114 0,-62.95072 3.71716,-57.72959 -41.10028,-57.72959 H 578.3649 v -10.69066 -10.69066 h 54.36966 c 46.57612,0 54.8513,0.48162 57.72959,3.35992 2.91812,2.91813 3.35992,12.5974 3.35992,73.61286 0,61.01545 -0.4418,70.69472 -3.35992,73.61285 -3.02448,3.02448 -35.24216,3.35992 -322.70532,3.35992 -287.463152,0 -319.680838,-0.33544 -322.705319,-3.35992 z"
       id="path2411"
       transform="scale(0.26458333)" />
    <path
       style="fill:#fefefe;fill-opacity:0.978723;stroke:#000000;stroke-width:2.13813"
       d="m 58.379643,898.61468 -12.178738,-0.80544 -1.327523,-8.98381 c -1.914888,-12.95872 -0.309791,-133.37785 1.806026,-135.49339 0.978242,-0.97811 29.602493,-2.06056 63.609452,-2.40545 l 61.83083,-0.62707 v 8.49809 8.49809 l -48.30032,0.68151 c -47.800135,0.67445 -48.3426,0.73378 -52.384248,5.72918 -3.752573,4.6381 -4.083941,8.99941 -4.083941,53.75098 0,44.76724 0.330329,49.11125 4.087355,53.75098 l 4.087355,5.04767 H 360.27537 645.02485 l 4.22585,-5.21872 c 3.98537,-4.92173 4.18757,-8.05093 3.55283,-54.98462 -0.59973,-44.34495 -1.08829,-50.18136 -4.48514,-53.57993 -3.24847,-3.25013 -8.54351,-3.91584 -35.81373,-4.50261 l -32.00162,-0.68857 v -8.50301 -8.50301 l 53.27897,0.63906 c 29.30343,0.35147 54.07904,1.44085 55.05692,2.42082 2.32501,2.33003 2.32186,141.64174 -0.004,143.96761 -1.70849,1.71004 -605.438938,2.96608 -630.455007,1.31164 z"
       id="path2413"
       transform="scale(0.26458333)" />
    <path
       style="fill:#fefefe;fill-opacity:0.978723;stroke:#000000;stroke-width:2.13813"
       d="m 69.037328,896.42276 -20.764248,-0.69801 -1.465537,-7.81198 c -1.65648,-8.8298 0.217488,-130.64354 2.037809,-132.46386 0.648091,-0.64809 28.168863,-1.69141 61.157278,-2.31848 l 59.97892,-1.14014 v 6.45152 6.45152 l -47.13098,0.96508 c -45.083152,0.92314 -47.335998,1.16991 -51.849714,5.67949 -4.543449,4.53928 -4.742815,6.49846 -5.366769,52.73956 -0.557332,41.30379 -0.149177,49.07639 2.916287,55.53639 l 3.564317,7.51123 H 360.27537 648.43605 l 3.73604,-7.87314 c 3.32067,-6.9978 3.61313,-13.11906 2.63042,-55.05692 -0.60811,-25.95107 -1.77301,-48.79316 -2.58868,-50.76019 -2.32747,-5.61273 -6.61348,-6.45114 -39.10427,-7.64932 l -30.46839,-1.12361 v -6.11959 -6.11959 h 32.8126 c 18.04691,0 41.61982,0.62516 52.38425,1.38924 l 19.57165,1.38923 v 69.88585 69.88585 l -189.57839,1.42143 c -182.39324,1.36756 -385.42503,1.28632 -428.793952,-0.17156 z"
       id="path2415"
       transform="scale(0.26458333)" />
    <path
       style="fill:#fefefe;fill-opacity:0.978723;stroke:#000000;stroke-width:2.13813"
       d="m 92.092431,268.18293 c -2.901875,-2.90187 -3.359923,-11.91708 -3.359923,-66.12939 0,-54.21231 0.458048,-63.22751 3.359923,-66.12939 3.021741,-3.02174 32.812469,-3.35992 295.978659,-3.35992 263.16619,0 292.95692,0.33818 295.97866,3.35992 2.90187,2.90188 3.35992,11.91708 3.35992,66.12939 0,54.21231 -0.45805,63.22752 -3.35992,66.12939 -2.86726,2.86726 -10.86191,3.35993 -54.52239,3.35993 H 578.3649 v -8.55253 -8.55253 h 27.31997 c 39.55989,0 36.82402,3.89192 36.82402,-52.38426 0,-56.23573 2.68308,-52.38425 -36.49263,-52.38425 -24.27317,0 -27.37795,-0.43025 -30.85855,-4.27626 -2.12849,-2.35195 -5.40463,-4.21528 -7.28033,-4.14074 -2.32699,0.0925 -1.95162,0.72408 1.18167,1.9883 15.04569,6.07058 4.3085,6.4287 -192.74769,6.4287 -197.0562,0 -207.79338,-0.35812 -192.74769,-6.4287 3.1333,-1.26422 3.50867,-1.89583 1.18166,-1.9883 -1.87569,-0.0745 -5.15183,1.78879 -7.28031,4.14074 -3.42809,3.78799 -6.58538,4.27626 -27.65136,4.27626 -35.45859,0 -33.28543,-3.42011 -33.28543,52.38425 0,55.8526 -2.22575,52.38426 33.61681,52.38426 h 24.11278 v 8.55253 8.55253 h -39.40273 c -32.96983,0 -39.951279,-0.54855 -42.762659,-3.35993 z"
       id="path2417"
       transform="scale(0.26458333)" />
    <path
       style="fill:#fefefe;fill-opacity:0.978723;stroke:#000000;stroke-width:2.13813"
       d="m 96.820509,267.94434 c -2.099696,-0.55146 -4.210726,-3.87814 -4.930639,-7.76998 -1.880503,-10.16595 -0.231489,-120.56573 1.831615,-122.62471 2.331854,-2.3272 586.371995,-2.32367 588.699215,0.004 2.32507,2.32507 2.32905,126.67035 0.004,129.00067 -0.9777,0.97998 -24.31008,2.07175 -51.84972,2.42615 l -50.07222,0.64438 v -6.52424 -6.52424 h 26.48979 c 38.87767,0 36.58512,3.41654 36.58512,-54.52239 0,-57.80723 2.15165,-54.52238 -35.71334,-54.52238 -22.38047,0 -26.30506,-0.54043 -31.05441,-4.27627 -6.30086,-4.95626 -11.27409,-5.55125 -11.27409,-1.34882 0,1.72179 -3.30218,3.47325 -8.018,4.25273 -10.44213,1.72598 -351.93234,1.73247 -362.37104,0.007 -4.38655,-0.72512 -7.45258,-2.16457 -6.81341,-3.19877 2.64643,-4.28201 -6.21375,-4.28202 -12.00547,-1e-5 -5.37498,3.97389 -9.05788,4.56425 -28.47358,4.56425 -34.01277,0 -32.39544,-2.72201 -32.39544,54.52238 0,57.42217 -1.77521,54.52239 33.37793,54.52239 h 23.28259 v 6.4144 6.41439 l -35.81373,-0.24802 c -19.69755,-0.13642 -37.466,-0.68198 -39.485451,-1.21236 z"
       id="path2419"
       transform="scale(0.26458333)" />
    <path
       style="fill:#fefefe;fill-opacity:0.978723;stroke:#000000;stroke-width:2.13813"
       d="m 203.27533,223.28215 c -4.81389,-4.81389 -4.81389,-39.78145 0,-44.59534 3.00462,-3.00462 23.67682,-3.35993 195.48642,-3.35993 171.80962,0 192.48181,0.35531 195.48642,3.35993 4.8139,4.81389 4.8139,39.78145 0,44.59534 -3.00461,3.00462 -23.6768,3.35992 -195.48642,3.35992 -171.8096,0 -192.4818,-0.3553 -195.48642,-3.35992 z"
       id="path2421"
       transform="scale(0.26458333)" />
    <path
       style="fill:#fefefe;fill-opacity:0.978723;stroke:#000000;stroke-width:2.13813"
       d="m 320.87263,623.11296 c -2.96972,-2.96971 -3.35992,-16.48491 -3.35992,-116.3755 0,-99.8906 0.3902,-113.40579 3.35992,-116.37551 5.00634,-5.00634 86.62792,-5.00634 91.63426,0 2.96972,2.96972 3.35993,16.48491 3.35993,116.37551 0,99.89059 -0.39021,113.40579 -3.35993,116.3755 -5.00634,5.00636 -86.62792,5.00636 -91.63426,0 z"
       id="path2423"
       transform="scale(0.26458333)" />
    <path
       style="fill:#fefefe;fill-opacity:0.978723;stroke:#000000;stroke-width:2.13813"
       d="m 224.65666,689.39508 c -3.0026,-3.0026 -3.35992,-22.99649 -3.35992,-188.00295 0,-165.00646 0.35732,-185.00036 3.35992,-188.00296 2.98593,-2.98593 18.91461,-3.35992 143.10217,-3.35992 124.18756,0 140.11624,0.37399 143.10217,3.35992 3.0026,3.0026 3.35992,22.9965 3.35992,188.00296 0,165.00646 -0.35732,185.00035 -3.35992,188.00295 -2.98593,2.98592 -18.91461,3.35993 -143.10217,3.35993 -124.18756,0 -140.11624,-0.37401 -143.10217,-3.35993 z m 188.59628,-61.97435 4.75201,-3.32846 V 506.73746 389.38264 l -4.75201,-3.32844 c -7.01147,-4.91102 -86.11489,-4.91102 -93.12635,0 l -4.75201,3.32844 v 117.35482 117.35481 l 4.75201,3.32846 c 3.90764,2.737 12.18131,3.32843 46.56317,3.32843 34.38187,0 42.65553,-0.59143 46.56318,-3.32843 z"
       id="path2425"
       transform="scale(0.26458333)" />
    <path
       style="fill:#fefefe;fill-opacity:0.978723;stroke:#000000;stroke-width:2.13813"
       d="M 176.39595,509.94466 V 275.81912 H 376.31136 576.22677 V 509.94466 744.07019 H 376.31136 176.39595 Z m 335.21108,183.75818 4.75203,-3.32845 V 501.39213 312.40986 l -4.75203,-3.32844 c -4.18272,-2.92969 -21.41577,-3.32844 -143.8482,-3.32844 -122.43242,0 -139.66549,0.39875 -143.84821,3.32844 l -4.75201,3.32844 v 188.98227 188.98226 l 4.75201,3.32845 c 4.18272,2.92969 21.41579,3.32843 143.84821,3.32843 122.43243,0 139.66548,-0.39874 143.8482,-3.32843 z"
       id="path2427"
       transform="scale(0.26458333)" />
    <path
       style="fill:#fefefe;fill-opacity:0.978723;stroke:#000000;stroke-width:2.13813"
       d="m 144.32396,806.07604 c 0,-1.41065 70.20202,-2.13813 206.32981,-2.13813 136.12779,0 206.32981,0.72748 206.32981,2.13813 0,1.41065 -70.20202,2.13813 -206.32981,2.13813 -136.12779,0 -206.32981,-0.72748 -206.32981,-2.13813 z"
       id="path2429"
       transform="scale(0.26458333)" />
    <path
       style="fill:#fefefe;fill-opacity:0.978723;stroke:#000000;stroke-width:2.13813"
       d="m 74.987369,877.55076 c -5.020476,-5.02047 -5.020476,-95.16631 0,-100.18679 3.02079,-3.02079 31.777771,-3.35662 284.906191,-3.32718 173.41095,0.0202 282.77806,0.81027 284.75346,2.05717 2.66227,1.68046 3.31701,10.16705 3.85347,49.94891 0.56547,41.93284 0.21232,48.35853 -2.82539,51.39616 -3.16835,3.16835 -28.10272,3.47166 -285.39973,3.47166 -253.44741,0 -282.267501,-0.33943 -285.288001,-3.35993 z M 565.06035,856.20092 c 4.36759,-3.05916 4.75202,-5.04443 4.75202,-24.53924 0,-20.69608 -0.14041,-21.30279 -5.78583,-25.00182 -5.43862,-3.56351 -18.24361,-3.79102 -213.37277,-3.79102 -195.12916,0 -207.93416,0.22751 -213.37277,3.79102 -5.64544,3.69903 -5.78584,4.30574 -5.78584,25.00182 0,19.49481 0.38445,21.48008 4.75202,24.53924 4.2225,2.95756 28.11332,3.32844 214.40659,3.32844 186.29326,0 210.18409,-0.37088 214.40658,-3.32844 z"
       id="path2431"
       transform="scale(0.26458333)" />
    <path
       style="fill:#fefefe;fill-opacity:0.978723;stroke:#000000;stroke-width:2.13813"
       d="m 87.269409,877.23583 -11.084697,-0.81514 -1.42933,-11.43998 c -1.894477,-15.16288 -0.410413,-83.71996 1.861421,-85.98928 2.225959,-2.22349 564.934417,-2.38221 567.156237,-0.15997 2.58964,2.59012 3.59574,91.96629 1.07689,95.66483 -1.92124,2.82106 -34.95086,3.22811 -274.34003,3.38094 -149.68568,0.0955 -277.143908,-0.19308 -283.240491,-0.6414 z M 567.86394,855.55076 c 3.36388,-4.15503 4.08657,-8.53925 4.08657,-24.79168 0,-31.30353 27.08293,-27.89024 -221.29674,-27.89024 -205.76531,0 -212.43369,0.12529 -216.796,4.07312 -3.98569,3.607 -4.50074,6.44407 -4.50074,24.79167 0,24.10229 1.72517,26.96472 17.10892,28.38749 5.28976,0.48922 101.34882,0.79676 213.46458,0.6834 l 203.84684,-0.20609 z"
       id="path2433"
       transform="scale(0.26458333)" />
    <path
       style="fill:#fefefe;fill-opacity:0.978723;stroke:#000000;stroke-width:2.13813"
       d="m 276.5156,744.60513 c 55.6538,-0.31736 146.09681,-0.31726 200.98447,2.2e-4 54.88767,0.31747 9.35275,0.57713 -101.18871,0.57701 -110.54146,-1.2e-4 -155.44955,-0.25987 -99.79576,-0.57723 z"
       id="path2435"
       transform="scale(0.26458333)" />
    <path
       style="fill:#fefefe;fill-opacity:0.978723;stroke:#000000;stroke-width:2.13813"
       d="m 178.53408,509.94466 v -231.9874 h 197.77728 197.77728 v 231.9874 231.9874 H 376.31136 178.53408 Z m 335.15231,185.40779 4.8108,-2.7479 V 501.39213 310.1797 l -4.8108,-2.74789 c -7.03418,-4.01787 -284.82095,-4.01787 -291.85512,0 l -4.8108,2.74789 v 191.16147 c 0,150.62117 0.5668,191.5124 2.67267,192.8163 6.43606,3.98501 27.34743,4.56184 154.48009,4.2613 105.33515,-0.24901 135.75118,-0.91752 139.51316,-3.06632 z"
       id="path2437"
       transform="scale(0.26458333)" />
    <path
       style="fill:#fefefe;fill-opacity:0.978723;stroke:#000000;stroke-width:2.13813"
       d="m 232.69286,689.12764 c -6.74539,-0.89004 -6.78466,-0.96834 -8.1611,-16.27309 -2.00023,-22.24084 -0.36568,-355.71911 1.75395,-357.83743 2.3297,-2.32825 280.61797,-2.32717 282.94624,0.001 2.3283,2.32832 2.32973,370.41764 0.001,372.74782 -1.77318,1.77458 -263.63892,3.06394 -276.54053,1.3616 z m 182.63942,-60.0573 4.8108,-2.74791 V 506.73746 387.15248 l -4.8108,-2.74789 c -6.83501,-3.90411 -90.46386,-3.89594 -97.3028,0.01 l -4.82856,2.7574 0.5523,120.18524 0.55229,120.18523 7.48347,2.63422 c 10.37477,3.65199 86.79529,2.74857 93.5433,-1.10584 z"
       id="path2439"
       transform="scale(0.26458333)" />
    <path
       style="fill:#fefefe;fill-opacity:0.978723;stroke:#000000;stroke-width:2.13813"
       d="m 176.39595,262.99033 v -8.55253 h 199.91541 199.91541 v 8.55253 8.55253 H 376.31136 176.39595 Z"
       id="path2441"
       transform="scale(0.26458333)" />
    <path
       style="fill:#fefefe;fill-opacity:0.978723;stroke:#000000;stroke-width:2.13813"
       d="m 212.28317,222.98956 c -7.13742,-0.78443 -8.08615,-1.62815 -9.33876,-8.30512 -1.66016,-8.84945 -0.24579,-32.16281 2.09316,-34.50176 2.24146,-2.24146 385.33855,-2.10982 387.58156,0.13318 2.32184,2.32185 2.3227,39.01424 9.6e-4,41.33723 -1.75549,1.75643 -364.90484,3.0325 -380.33692,1.33647 z"
       id="path2443"
       transform="scale(0.26458333)" />
  </g>
</svg>
